# xmcd
#
# Track frame offsets:
#	150
#	15744
#	32820
#	52108
#	68516
#	84452
#	106661
#	127883
#	142324
#	162564
#	179133
#
# Disc length: 2689 seconds
#
# Revision: 3
# Processed by: cddbd v1.5.2PL0 Copyright (c) Steve Scherf et al.
# Submitted via: EasyCDDAExtractor 2010.6.0.0
#
DISCID=990a7f0b
DTITLE=Kruttrøyk - Kuler og Krutt
DYEAR=2006
DGENRE=Country
TTITLE0=Godt å ha ei mor
TTITLE1=Såg ei Jente
TTITLE2=Ka e det eg lar deg sjå
TTITLE3=Vere me deg
TTITLE4=Blanke Ark
TTITLE5=Trygg og naken
TTITLE6=Ålemannen og Fiaten
TTITLE7=Odelsgut
TTITLE8=Luta Lei
TTITLE9=Min e mykje større
TTITLE10=På gang
EXTD=Norwegian Songs 2006 Tylden and Co As\nGTACD 8347
EXTT0=
EXTT1=
EXTT2=
EXTT3=
EXTT4=
EXTT5=
EXTT6=
EXTT7=
EXTT8=
EXTT9=
EXTT10=
PLAYORDER=
